<svg width="471" height="55" viewBox="0 0 471 55" fill="none" xmlns="http://www.w3.org/2000/svg">
<path d="M3.47754 16.8784H6.98114V17.9645H4.68299V19.4935H6.88574V20.5796H4.68299V22.0668H6.98114V23.1529H3.47754V16.8784Z" fill="black"/>
<path d="M9.14931 21.3565C9.16666 21.5152 9.20134 21.6489 9.26205 21.7575C9.31408 21.8661 9.38346 21.9497 9.47018 22.0165C9.54823 22.0834 9.64363 22.1251 9.73035 22.1586C9.81707 22.192 9.92114 22.2003 10.0165 22.2003C10.1293 22.2003 10.242 22.1836 10.3548 22.1418C10.4588 22.1084 10.5629 22.0499 10.6409 21.9831C10.7277 21.9163 10.7884 21.8327 10.8404 21.7325C10.8924 21.6322 10.9184 21.5319 10.9184 21.4066C10.9184 21.2479 10.8924 21.1142 10.8404 21.0139C10.7884 20.9137 10.7103 20.8218 10.6062 20.7466C10.5022 20.6714 10.3721 20.6046 10.216 20.5461C10.0599 20.4876 9.88645 20.4208 9.68699 20.3456C9.56558 20.2954 9.40948 20.2453 9.23603 20.1701C9.05392 20.0949 8.88914 19.9947 8.72437 19.8693C8.5596 19.7357 8.42084 19.5686 8.3081 19.3597C8.19536 19.1508 8.13466 18.8751 8.13466 18.5409C8.13466 18.2903 8.18669 18.0563 8.28209 17.8391C8.37748 17.6219 8.51624 17.4297 8.68101 17.271C8.85445 17.1122 9.05392 16.9786 9.27939 16.8867C9.51355 16.7948 9.76504 16.7446 10.0426 16.7446C10.2333 16.7446 10.4328 16.7781 10.6496 16.8449C10.8664 16.9117 11.0745 17.012 11.2653 17.1624C11.4561 17.3044 11.6122 17.4882 11.7423 17.7138C11.8724 17.9394 11.9504 18.2151 11.9678 18.5326H10.7363C10.7277 18.3905 10.693 18.2736 10.6496 18.1817C10.6062 18.0898 10.5455 18.0229 10.4762 17.9644C10.4068 17.9143 10.3374 17.8725 10.2507 17.8558C10.164 17.8391 10.0859 17.8224 10.0079 17.8224C9.81707 17.8224 9.66097 17.8809 9.53089 17.9979C9.40081 18.1148 9.3401 18.2652 9.3401 18.4574C9.3401 18.591 9.36612 18.708 9.41815 18.7916C9.47018 18.8835 9.53956 18.9587 9.63496 19.0171C9.73035 19.0756 9.84309 19.1341 9.98185 19.1842C10.1119 19.2344 10.268 19.2845 10.4328 19.3346C10.5716 19.3848 10.7363 19.4432 10.9271 19.5184C11.1179 19.5936 11.3087 19.7022 11.4908 19.8526C11.6729 20.003 11.829 20.1868 11.9504 20.4124C12.0719 20.638 12.1412 20.922 12.1412 21.2646C12.1412 21.6071 12.0805 21.8996 11.9591 22.1502C11.8377 22.4008 11.6729 22.6097 11.4735 22.7768C11.274 22.9439 11.0485 23.0609 10.7884 23.1444C10.5369 23.228 10.2854 23.2697 10.0339 23.2697C9.82575 23.2697 9.60027 23.2363 9.35744 23.1611C9.11462 23.0943 8.88914 22.9773 8.68101 22.8186C8.47288 22.6598 8.29943 22.4677 8.152 22.217C8.00457 21.9747 7.92652 21.6823 7.90918 21.3314H9.14931V21.3565Z" fill="black"/>
<path d="M13.8754 17.9645H12.6699V16.8784H16.2949V17.9645H15.0808V23.1529H13.8754V17.9645Z" fill="black"/>
<path d="M18.4286 22.0249H17.2578V23.1532H18.4286V22.0249Z" fill="black"/>
<path d="M451.045 22.0833L453.369 19.9946C453.525 19.8526 453.655 19.7189 453.751 19.6019C453.846 19.4766 453.924 19.368 453.967 19.2677C454.019 19.1675 454.054 19.0756 454.063 18.992C454.08 18.9085 454.089 18.8333 454.089 18.7581C454.089 18.591 454.063 18.449 454.002 18.332C453.941 18.215 453.872 18.1148 453.777 18.0396C453.69 17.9644 453.586 17.9059 453.473 17.8725C453.36 17.8391 453.248 17.814 453.135 17.814C452.901 17.814 452.719 17.8725 452.58 17.9811C452.432 18.0981 452.328 18.2067 452.268 18.3236C452.207 18.4322 452.172 18.5409 452.164 18.6662C452.155 18.7831 452.146 18.9085 452.146 19.0338H450.984C450.976 18.992 450.976 18.9502 450.976 18.9252V18.8333C450.976 18.5826 451.028 18.3403 451.123 18.0897C451.218 17.8474 451.357 17.6218 451.539 17.4213C451.721 17.2208 451.947 17.0621 452.207 16.9367C452.467 16.8114 452.771 16.7529 453.109 16.7529C453.447 16.7529 453.742 16.8114 454.011 16.9284C454.271 17.0453 454.496 17.2041 454.687 17.3963C454.869 17.5884 455.017 17.8056 455.112 18.0563C455.216 18.3069 455.26 18.5576 455.26 18.8082C455.26 18.9753 455.242 19.134 455.199 19.2928C455.164 19.4515 455.095 19.6186 454.999 19.7941C454.904 19.9695 454.774 20.145 454.618 20.3371C454.453 20.5293 454.245 20.7298 453.993 20.947L452.675 22.0833H455.251V23.1527H451.036V22.0833H451.045Z" fill="black"/>
<path d="M460.506 21.1727C460.506 21.5152 460.446 21.816 460.324 22.075C460.203 22.3424 460.038 22.5596 459.839 22.735C459.639 22.9105 459.405 23.0442 459.145 23.1361C458.885 23.228 458.607 23.2697 458.321 23.2697C457.991 23.2697 457.697 23.2196 457.436 23.111C457.176 23.0107 456.925 22.8269 456.665 22.5847C456.491 22.4176 456.352 22.217 456.266 21.9915C456.179 21.7575 456.127 21.4735 456.127 21.1142V18.8584C456.127 18.4824 456.196 18.165 456.326 17.8976C456.456 17.6302 456.63 17.413 456.847 17.2459C457.064 17.0788 457.298 16.9535 457.567 16.87C457.827 16.7864 458.096 16.7446 458.356 16.7446C458.599 16.7446 458.85 16.7864 459.11 16.8783C459.362 16.9702 459.596 17.0955 459.804 17.271C460.012 17.4464 460.177 17.6637 460.307 17.931C460.437 18.1984 460.498 18.5075 460.498 18.8668V21.1727H460.506ZM459.336 18.8668C459.336 18.7164 459.31 18.5743 459.258 18.4407C459.206 18.307 459.136 18.1984 459.041 18.1065C458.954 18.0146 458.841 17.9394 458.72 17.8892C458.599 17.8391 458.468 17.8141 458.33 17.8141C458.052 17.8141 457.809 17.906 457.601 18.0981C457.402 18.2819 457.298 18.5576 457.298 18.9085V21.0474C457.298 21.2897 457.332 21.4818 457.402 21.6322C457.471 21.7826 457.558 21.8996 457.662 21.9915C457.766 22.075 457.879 22.1335 457.991 22.1669C458.113 22.2003 458.217 22.217 458.321 22.217C458.408 22.217 458.503 22.2003 458.625 22.1753C458.746 22.1502 458.85 22.0917 458.963 22.0165C459.067 21.933 459.154 21.8244 459.232 21.674C459.31 21.5236 459.344 21.3314 459.344 21.0808V18.8668H459.336Z" fill="black"/>
<path d="M465.693 21.1727C465.693 21.5152 465.632 21.816 465.511 22.075C465.39 22.3424 465.225 22.5596 465.025 22.735C464.826 22.9105 464.592 23.0442 464.332 23.1361C464.071 23.228 463.794 23.2697 463.508 23.2697C463.178 23.2697 462.883 23.2196 462.632 23.111C462.372 23.0107 462.111 22.8269 461.86 22.5847C461.687 22.4176 461.548 22.217 461.461 21.9915C461.366 21.7575 461.322 21.4735 461.322 21.1142V18.8584C461.322 18.4824 461.392 18.165 461.522 17.8976C461.652 17.6302 461.825 17.413 462.042 17.2459C462.259 17.0788 462.493 16.9535 462.762 16.87C463.022 16.7864 463.291 16.7446 463.551 16.7446C463.794 16.7446 464.045 16.7864 464.306 16.8783C464.557 16.9702 464.791 17.0955 464.999 17.271C465.207 17.4464 465.372 17.6637 465.502 17.931C465.632 18.1984 465.693 18.5075 465.693 18.8668V21.1727ZM464.522 18.8668C464.522 18.7164 464.496 18.5743 464.444 18.4407C464.392 18.307 464.323 18.1984 464.227 18.1065C464.141 18.0146 464.028 17.9394 463.907 17.8892C463.785 17.8391 463.655 17.8141 463.516 17.8141C463.23 17.8141 462.996 17.906 462.788 18.0981C462.588 18.2819 462.484 18.5576 462.484 18.9085V21.0474C462.484 21.2897 462.519 21.4818 462.588 21.6322C462.658 21.7826 462.745 21.8996 462.849 21.9915C462.953 22.075 463.057 22.1335 463.178 22.1669C463.3 22.2003 463.404 22.217 463.508 22.217C463.594 22.217 463.69 22.2003 463.811 22.1753C463.933 22.1502 464.037 22.0917 464.149 22.0165C464.254 21.933 464.34 21.8244 464.418 21.674C464.488 21.5236 464.531 21.3314 464.531 21.0808V18.8668H464.522Z" fill="black"/>
<path d="M468.251 17.9478H467.436V16.8784H469.422V23.1529H468.251V17.9478Z" fill="black"/>
<path d="M471 26.1689H450.1V28.1073H471V26.1689Z" fill="black"/>
<path d="M20.9178 25.3501H0.0175781V27.2884H20.9178V25.3501Z" fill="black"/>
<path d="M141.063 50.189H0V51.2504H141.063V50.189Z" fill="black"/>
<path d="M141.063 52.7957H0V53.8571H141.063V52.7957Z" fill="black"/>
<path d="M470.922 50.189H329.858V51.2504H470.922V50.189Z" fill="black"/>
<path d="M470.922 52.7957H329.858V53.8571H470.922V52.7957Z" fill="black"/>
<path d="M150.377 54.4834L150.724 54.45C150.984 54.4249 151.097 54.3664 151.097 54.3079V49.8298C151.097 49.7629 151.045 49.7379 150.655 49.7044L150.377 49.671L150.351 49.5374H152.918L152.892 49.671L152.545 49.7044C152.268 49.7295 152.173 49.7963 152.173 49.8465V54.333C152.173 54.3998 152.233 54.4249 152.597 54.4583L152.875 54.4917L152.901 54.6254H150.334L150.377 54.4834Z" fill="black"/>
<path d="M156.795 50.3811H156.769L156.778 53.748C156.778 54.2827 156.925 54.4081 157.402 54.4498L157.654 54.4833L157.68 54.6169H155.772L155.798 54.4833L156.032 54.4498C156.44 54.4164 156.561 54.266 156.561 53.7063L156.587 50.2724C156.414 49.9884 156.179 49.7711 155.85 49.7127L155.676 49.6625L155.65 49.5289H157.532L160.463 53.0797H160.49L160.481 50.3978C160.481 49.8631 160.351 49.7294 159.856 49.6876L159.614 49.6542L159.588 49.5205H161.487L161.461 49.6542L161.227 49.6876C160.828 49.721 160.698 49.8714 160.698 50.4312L160.672 54.6504H160.377L156.795 50.3811Z" fill="black"/>
<path d="M165.502 54.4834L165.901 54.45C166.161 54.4249 166.265 54.3664 166.265 54.3079V49.7044H166.065C165.276 49.7379 164.808 50.2893 164.565 50.824L164.47 51.1164H164.244L164.461 49.5374H169.231L169.343 51.108H169.144L169.049 50.824C168.806 50.2392 168.346 49.7128 167.583 49.7044H167.366V54.333C167.366 54.3998 167.427 54.4249 167.8 54.4583L168.129 54.4917L168.155 54.6254H165.493L165.502 54.4834Z" fill="black"/>
<path d="M172.249 54.4834L172.552 54.45C172.821 54.4166 172.934 54.3664 172.934 54.3079V49.8298C172.934 49.7629 172.882 49.7379 172.5 49.7044L172.266 49.671L172.24 49.5374H176.637L176.698 51.2H176.481L176.403 50.9326C176.134 49.9969 175.727 49.6961 174.608 49.7044L174.044 49.7128V51.9352L174.356 51.9268C175.024 51.9018 175.319 51.7681 175.458 51.3169L175.553 51.0579H175.735L175.527 53.0046L175.362 52.9962L175.328 52.7456C175.284 52.2694 175.093 52.1357 174.304 52.1023L174.053 52.0939V54.4082L174.755 54.4333C175.917 54.4249 176.377 53.9738 176.68 53.1801L176.767 52.9378H176.984L176.767 54.6004H172.258L172.249 54.4834Z" fill="black"/>
<path d="M179.854 54.4833L180.21 54.4498C180.427 54.4248 180.583 54.3663 180.583 54.3078V49.8213C180.583 49.7544 180.531 49.7294 180.14 49.696L179.863 49.6625L179.837 49.5289L182.352 49.5205C183.774 49.5205 184.494 49.9717 184.494 50.8071C184.494 51.4338 184.008 51.9183 183.219 52.1021L184.312 53.7648C184.659 54.2828 184.789 54.4164 185.153 54.4582L185.292 54.4833L185.326 54.617H183.557L183.41 54.3329L182.152 52.1857C182.04 52.1606 181.78 52.1272 181.684 52.0854V54.3329C181.684 54.3997 181.814 54.4331 182.109 54.4582L182.413 54.4916L182.439 54.6253H179.846L179.854 54.4833ZM183.323 50.8406C183.323 50.1221 182.855 49.6793 182.005 49.696C181.988 49.696 181.667 49.7043 181.667 49.7043V51.91C181.771 51.9351 182.014 51.9768 182.109 51.9768C182.872 51.9601 183.323 51.5758 183.323 50.8406Z" fill="black"/>
<path d="M188.934 50.3811H188.908L188.916 53.748C188.916 54.2827 189.064 54.4081 189.541 54.4498L189.792 54.4833L189.818 54.6169H187.91L187.937 54.4833L188.171 54.4498C188.578 54.4164 188.7 54.266 188.7 53.7063L188.726 50.2724C188.561 49.9884 188.318 49.7711 187.989 49.7127L187.815 49.6625L187.789 49.5289H189.671L192.602 53.0797H192.628L192.62 50.3978C192.62 49.8631 192.481 49.7294 191.995 49.6876L191.752 49.6542L191.726 49.5205H193.626L193.6 49.6542L193.365 49.6876C192.966 49.721 192.836 49.8714 192.836 50.4312L192.81 54.6504H192.515L188.934 50.3811Z" fill="black"/>
<path d="M197.329 53.2468C196.982 54.2326 196.948 54.3747 197.615 54.4499L197.806 54.4749L197.832 54.617H195.95L195.976 54.4749L196.132 54.4499C196.627 54.3747 196.713 54.2828 197.251 52.8457L198.214 50.2725L198.144 49.9967C198.404 49.9216 198.803 49.6542 198.907 49.4036H199.064L200.564 53.6227C200.798 54.2911 200.937 54.4164 201.266 54.4415L201.518 54.4749L201.544 54.617H198.933L198.959 54.4749L199.202 54.4499C199.61 54.4164 199.619 54.241 199.419 53.6812L199.046 52.5867H197.555L197.329 53.2468ZM198.352 50.498H198.318L197.624 52.4029H198.985L198.352 50.498Z" fill="black"/>
<path d="M204.726 54.4834L205.125 54.45C205.385 54.4249 205.489 54.3664 205.489 54.3079V49.7044H205.29C204.501 49.7379 204.032 50.2893 203.79 50.824L203.694 51.1164H203.469L203.686 49.5374H208.455L208.568 51.108H208.369L208.273 50.824C208.03 50.2392 207.571 49.7128 206.808 49.7044H206.591V54.333C206.591 54.3998 206.651 54.4249 207.024 54.4583L207.354 54.4917L207.38 54.6254H204.718L204.726 54.4834Z" fill="black"/>
<path d="M211.542 54.4834L211.889 54.45C212.15 54.4249 212.262 54.3664 212.262 54.3079V49.8298C212.262 49.7629 212.21 49.7379 211.82 49.7044L211.542 49.671L211.516 49.5374H214.092L214.066 49.671L213.719 49.7044C213.442 49.7295 213.346 49.7963 213.346 49.8465V54.333C213.346 54.3998 213.407 54.4249 213.771 54.4583L214.049 54.4917L214.075 54.6254H211.508L211.542 54.4834Z" fill="black"/>
<path d="M217.032 52.0939C217.032 50.6485 218.359 49.4287 219.946 49.4287C221.594 49.4287 222.782 50.4898 222.782 52.0688C222.782 53.5226 221.464 54.7257 219.868 54.7257C218.212 54.7257 217.032 53.6646 217.032 52.0939ZM221.576 52.0939C221.576 50.5148 220.891 49.6125 219.885 49.6125C218.845 49.6125 218.22 50.4313 218.22 52.0688C218.22 53.6479 218.905 54.5502 219.929 54.5502C220.961 54.5502 221.576 53.7398 221.576 52.0939Z" fill="black"/>
<path d="M226.676 50.3811H226.65L226.659 53.748C226.659 54.2827 226.806 54.4081 227.283 54.4498L227.535 54.4833L227.561 54.6169H225.653L225.679 54.4833L225.913 54.4498C226.32 54.4164 226.442 54.266 226.442 53.7063L226.468 50.2724C226.303 49.9884 226.06 49.7711 225.731 49.7127L225.557 49.6625L225.531 49.5289H227.413L230.344 53.0797H230.37L230.362 50.3978C230.362 49.8631 230.232 49.7294 229.737 49.6876L229.494 49.6542L229.468 49.5205H231.368L231.342 49.6542L231.107 49.6876C230.709 49.721 230.578 49.8714 230.578 50.4312L230.552 54.6504H230.258L226.676 50.3811Z" fill="black"/>
<path d="M235.07 53.2468C234.723 54.2326 234.689 54.3747 235.356 54.4499L235.547 54.4749L235.573 54.617H233.691L233.717 54.4749L233.874 54.4499C234.368 54.3747 234.455 54.2828 234.992 52.8457L235.955 50.2725L235.885 49.9967C236.146 49.9216 236.545 49.6542 236.649 49.4036H236.796L238.296 53.6227C238.531 54.2911 238.669 54.4164 238.999 54.4415L239.25 54.4749L239.276 54.617H236.666L236.692 54.4749L236.935 54.4499C237.342 54.4164 237.351 54.241 237.152 53.6812L236.779 52.5867H235.287L235.07 53.2468ZM236.094 50.498H236.059L235.365 52.4029H236.727L236.094 50.498Z" fill="black"/>
<path d="M241.913 54.4834L242.234 54.4416C242.511 54.4166 242.598 54.3581 242.598 54.3079V49.8298C242.598 49.7629 242.555 49.7295 242.173 49.7044L241.93 49.671L241.904 49.5374H244.506L244.48 49.671L244.064 49.7128C243.821 49.7295 243.691 49.788 243.691 49.8465V54.4166L244.168 54.45C245.226 54.45 245.573 54.0573 246.024 53.0881L246.128 52.8208H246.344L246.102 54.6171H241.896L241.913 54.4834Z" fill="black"/>
<path d="M249.207 54.4834L249.527 54.4416C249.805 54.4166 249.892 54.3581 249.892 54.3079V49.8298C249.892 49.7629 249.848 49.7295 249.458 49.7044L249.215 49.671L249.189 49.5374H251.782L251.756 49.671L251.34 49.7128C251.097 49.7295 250.967 49.788 250.967 49.8465V54.4166L251.444 54.45C252.502 54.45 252.849 54.0573 253.3 53.0881L253.404 52.8208H253.621L253.378 54.6171H249.172L249.207 54.4834Z" fill="black"/>
<path d="M257.15 54.4834L257.549 54.45C257.809 54.4249 257.913 54.3664 257.913 54.3079V52.378L256.699 50.3311C256.422 49.8966 256.309 49.7546 255.98 49.7128L255.789 49.6794L255.763 49.5374H258.304L258.278 49.6794L258.096 49.6961C257.645 49.7462 257.627 49.8966 257.87 50.3143L258.867 52.0521H258.902L259.57 50.8658C260.082 49.9467 260.081 49.7796 259.457 49.7044L259.266 49.6794L259.24 49.5374H261.14L261.114 49.6794L260.905 49.7128C260.515 49.7713 260.342 49.8966 259.795 50.8825L259.023 52.2192V54.333C259.023 54.3998 259.084 54.4249 259.457 54.4583L259.778 54.4917L259.804 54.6254H257.15V54.4834Z" fill="black"/>
<path d="M267.766 52.1274C267.766 50.5734 268.954 49.4204 270.862 49.4204C271.391 49.4204 271.937 49.5624 272.197 49.6961L272.804 49.5207L272.848 51.2H272.639L271.928 49.8465C271.712 49.7045 271.33 49.6042 270.87 49.6042C269.647 49.6042 268.954 50.6486 268.954 52.0522C268.954 53.5727 269.752 54.5419 270.853 54.5419C271.616 54.5419 272.076 54.2077 272.449 53.6312L272.761 52.9211H272.986L272.735 54.4333H272.371C272.058 54.567 271.365 54.7174 270.792 54.7174C268.98 54.7174 267.766 53.673 267.766 52.1274Z" fill="black"/>
<path d="M276.62 52.9879V49.8131C276.62 49.7546 276.577 49.7295 276.195 49.7044L275.909 49.671L275.883 49.5374H278.45L278.424 49.671L278.068 49.7044C277.799 49.7295 277.704 49.7796 277.704 49.8381V52.7456C277.704 53.8067 278.207 54.3247 279.161 54.3247C280.124 54.3247 280.644 53.79 280.644 52.6621L280.635 50.4146C280.635 49.8799 280.496 49.7462 280.011 49.7044L279.759 49.671L279.733 49.5374H281.641L281.615 49.671L281.381 49.7044C280.982 49.7379 280.852 49.8883 280.852 50.448L280.835 52.7038C280.826 53.9988 280.193 54.7508 278.797 54.7508C277.348 54.7508 276.62 54.2077 276.62 52.9879Z" fill="black"/>
<path d="M284.277 54.4833L284.633 54.4498C284.849 54.4248 285.006 54.3663 285.006 54.3078V49.8213C285.006 49.7544 284.954 49.7294 284.563 49.696L284.286 49.6625L284.26 49.5289L286.775 49.5205C288.197 49.5205 288.917 49.9717 288.917 50.8071C288.917 51.4338 288.422 51.9183 287.642 52.1021L288.735 53.7648C289.082 54.2828 289.212 54.4164 289.576 54.4582L289.715 54.4833L289.749 54.617H287.98L287.833 54.3329L286.575 52.1857C286.463 52.1606 286.202 52.1272 286.107 52.0854V54.3329C286.107 54.3997 286.237 54.4331 286.532 54.4582L286.835 54.4916L286.861 54.6253H284.268L284.277 54.4833ZM287.746 50.8406C287.746 50.1221 287.278 49.6793 286.428 49.696C286.41 49.696 286.09 49.7043 286.09 49.7043V51.91C286.194 51.9351 286.437 51.9768 286.541 51.9768C287.295 51.9601 287.746 51.5758 287.746 50.8406Z" fill="black"/>
<path d="M293.253 53.2468C292.906 54.2326 292.871 54.3747 293.539 54.4499L293.73 54.4749L293.756 54.617H291.874L291.9 54.4749L292.056 54.4499C292.55 54.3747 292.637 54.2828 293.175 52.8457L294.138 50.2725L294.068 49.9967C294.328 49.9216 294.727 49.6542 294.831 49.4036H294.987L296.488 53.6227C296.722 54.2911 296.861 54.4164 297.19 54.4415L297.442 54.4749L297.468 54.617H294.857L294.883 54.4749L295.126 54.4499C295.534 54.4164 295.542 54.241 295.343 53.6812L294.97 52.5867H293.478L293.253 53.2468ZM294.276 50.498H294.242L293.548 52.4029H294.909L294.276 50.498Z" fill="black"/>
<path d="M300.65 54.4834L301.049 54.45C301.309 54.4249 301.413 54.3664 301.413 54.3079V49.7044H301.214C300.425 49.7379 299.956 50.2893 299.713 50.824L299.618 51.1164H299.393L299.609 49.5374H304.379L304.492 51.108H304.292L304.197 50.824C303.954 50.2392 303.495 49.7128 302.731 49.7044H302.515V54.333C302.515 54.3998 302.575 54.4249 302.948 54.4583L303.278 54.4917L303.304 54.6254H300.641L300.65 54.4834Z" fill="black"/>
<path d="M307.397 54.4834L307.701 54.45C307.97 54.4166 308.082 54.3664 308.082 54.3079V49.8298C308.082 49.7629 308.03 49.7379 307.64 49.7044L307.406 49.671L307.38 49.5374H311.768L311.829 51.2H311.612L311.534 50.9326C311.265 49.9969 310.857 49.6961 309.739 49.7044L309.175 49.7128V51.9352L309.487 51.9268C310.155 51.9018 310.45 51.7681 310.589 51.3169L310.684 51.0579H310.857L310.649 53.0046L310.485 52.9962L310.45 52.7456C310.407 52.2694 310.216 52.1357 309.427 52.1023L309.175 52.0939V54.4082L309.877 54.4333C311.04 54.4249 311.499 53.9738 311.803 53.1801L311.889 52.9378H312.106L311.889 54.6004H307.38L307.397 54.4834Z" fill="black"/>
<path d="M315.047 54.4835L315.359 54.4501C315.628 54.4167 315.732 54.3666 315.732 54.3081V49.8215C315.732 49.7547 315.671 49.7296 315.289 49.6962L315.055 49.6628L315.029 49.5291C315.029 49.5291 317.475 49.5124 317.431 49.5124C319.391 49.4957 320.458 50.4899 320.458 51.9854C320.458 53.4058 319.261 54.6005 317.319 54.6005H315.021L315.047 54.4835ZM319.27 52.1776C319.27 50.6988 318.628 49.7129 317.223 49.7129H316.824V54.3164L317.397 54.4501C318.62 54.4417 319.27 53.4057 319.27 52.1776Z" fill="black"/>
<path d="M43.1533 8.7657L50.2906 8.73228V32.3513H57.9829V8.7657H65.0508V1.35498H43.1533V8.7657ZM57.1937 8.00541V31.5994H51.0711L54.0804 28.6669V5.13971L51.0711 7.9887V7.98034L43.9512 8.01376L47.0472 5.14806H54.0891H61.157L64.2703 2.12362V8.01376H57.1937V8.00541Z" fill="black"/>
<path d="M84.3983 13.1604H76.3418V1.38013H68.5801V32.3598H76.3418V20.638L84.3289 20.6212L84.3896 32.3598L92.1426 32.3848V1.38013H84.381V13.1604H84.3983ZM85.1875 31.5995L88.2575 28.692V16.9451L85.1181 19.8777V19.861L75.5613 19.8777V31.5995H69.3779L72.4479 28.692V5.16485L75.5613 2.14042V13.9207H75.5699L72.4739 16.9451H88.2661V5.16485L91.3795 2.14042V31.6245L85.1875 31.5995Z" fill="black"/>
<path d="M95.6895 32.3514L119.113 32.4099V24.8739H103.347V20.6297H119.113V13.1521H103.347V8.78254H119.113V1.37183H95.6895V32.3514ZM102.567 8.0306V13.9124H102.575L99.4966 16.9285L115.393 16.9452L118.341 13.9374V19.8777H102.575V25.6342H102.584L99.4792 28.692H115.393L118.341 25.6592V31.658L96.4873 31.5995L99.4792 28.692L99.4619 5.09807L115.393 5.1649L118.341 2.15717V8.0306H102.567Z" fill="black"/>
<path d="M164.912 22.3171H157.385L157.367 22.6847C157.367 22.7766 157.255 24.8737 154.974 24.8737H150.282H150.187C149.658 24.8737 147.021 24.6481 147.021 20.2535V13.5112C147.021 13.4861 146.848 10.9546 148.149 9.60945C148.678 9.06639 149.389 8.79069 150.273 8.79069H155.009C155.251 8.79069 157.367 8.87424 157.367 11.3389V11.7149L164.921 11.7232L164.964 11.389C164.982 11.247 165.355 7.91343 162.805 5.14799C160.654 2.817 157.116 1.63062 152.294 1.63062C148.244 1.63062 145.079 2.71674 142.876 4.86393C139.121 8.50662 139.182 14.1294 139.199 16.5272V16.945C139.199 17.1121 139.19 17.3042 139.19 17.5298C139.147 19.9193 139.043 25.5254 142.711 29.1179C144.923 31.2818 148.14 32.3763 152.294 32.3763C157.307 32.3763 160.914 31.1649 163.039 28.7837C165.485 26.035 164.982 22.7683 164.964 22.6346L164.912 22.3171ZM162.441 28.2992C160.481 30.5048 157.064 31.6244 152.294 31.6244C148.357 31.6244 145.322 30.6051 143.275 28.5916C143.223 28.5414 143.188 28.4913 143.136 28.4412L145.512 26.2439C142.703 23.2027 143.067 18.3987 143.067 16.8781C143.067 14.5889 142.529 5.00596 152.589 5.00596C154.93 5.00596 156.682 5.40699 157.992 6.02525L160.038 3.99503C160.88 4.45454 161.617 4.98924 162.215 5.64092C164.088 7.66278 164.227 10.094 164.21 10.9713L158.148 10.9629C158.148 10.9546 158.148 10.9462 158.148 10.9462L161.088 8.94943C160.541 7.88837 159.605 6.79388 157.992 6.0336L155.78 8.14736C155.373 8.0471 155.069 8.03875 155.017 8.03875H150.282C149.172 8.03875 148.262 8.39801 147.576 9.10817C146.05 10.6872 146.241 13.4527 146.241 13.5446V20.2618C146.241 22.3505 146.796 23.6205 147.49 24.4058L145.521 26.2439C146.935 27.6475 149.129 28.3911 152.58 28.3911C158.391 28.3911 160.576 26.2439 161.374 24.364L164.132 23.0858H164.21C164.271 23.9212 164.227 26.2857 162.441 28.2992Z" fill="black"/>
<path d="M190.253 4.46305C188.197 2.41612 185.344 1.38013 181.789 1.38013H179.95C168.789 1.38013 167.896 11.3223 167.835 13.3108C167.826 13.5029 167.826 13.6116 167.826 13.6116V20.1367C167.826 20.3623 167.766 25.7093 171.417 29.2935C173.507 31.3405 176.377 32.3765 179.95 32.3765H181.789C185.344 32.3765 188.197 31.3405 190.253 29.2935C193.886 25.6843 193.756 20.2703 193.748 20.0531V13.7118C193.756 13.4862 193.886 8.07233 190.253 4.46305ZM171.512 19.5435V18.0981L171.521 19.8192C171.503 19.6437 171.512 19.5435 171.512 19.5435ZM171.512 14.1713C171.512 14.1546 171.512 14.1296 171.512 14.1129L171.503 15.8423V14.3969C171.512 14.3969 171.503 14.3217 171.512 14.1713ZM189.68 28.7755C187.772 30.6637 185.119 31.6245 181.78 31.6245H179.941C176.585 31.6245 173.905 30.6637 171.972 28.7672C171.876 28.6753 171.798 28.5834 171.711 28.4915L173.992 26.478C171.815 24.1303 171.538 20.78 171.503 19.8192V14.1129C171.564 12.5589 172.24 5.07296 180.071 5.07296H181.416C184.33 5.07296 186.237 5.94186 187.495 7.33711L189.819 5.13144C193.071 8.51514 192.958 13.6366 192.958 13.7035V20.0698C192.967 20.12 193.089 25.4002 189.68 28.7755Z" fill="black"/>
<path d="M185.04 9.1501C184.077 8.19765 182.811 7.71307 181.302 7.71307H180.444C175.058 7.71307 174.581 13.645 174.546 14.8731V14.9149C174.546 15.0319 174.546 15.0987 174.546 15.0987V18.9503C174.546 18.9503 174.546 19.0338 174.546 19.1675V19.1759C174.572 19.9194 174.754 22.5178 176.203 24.3726L174 26.4529C175.283 27.8314 176.125 28.692 180.079 28.692H181.58C190.2 28.692 189.896 19.5435 189.879 19.2928V17.8558V15.7504V14.305C189.879 14.305 190 10.1276 187.503 7.34546L185.378 9.52606C185.274 9.39239 185.161 9.26707 185.04 9.1501ZM175.336 14.9567V14.8982C175.37 13.8121 175.778 8.48171 180.444 8.48171H181.302C182.594 8.48171 183.661 8.8911 184.476 9.68481C186.401 11.5897 186.341 15.1071 186.341 15.1488V18.9085C186.341 18.9419 186.401 22.4677 184.476 24.3642C183.661 25.1663 182.594 25.5673 181.302 25.5673H180.444C175.769 25.5673 175.37 20.2202 175.336 19.1592V14.9567Z" fill="black"/>
<path d="M318.289 1.38013H310.432V20.2787C310.432 20.3038 310.562 22.7935 309.279 24.0968C308.767 24.6232 308.108 24.8738 307.267 24.8738C306.426 24.8738 305.775 24.6232 305.255 24.0968C303.971 22.8019 304.093 20.2954 304.093 20.2536V1.38013H296.236V20.2286C296.218 20.4542 295.898 25.8931 299.358 29.4439C301.257 31.3906 303.911 32.3765 307.258 32.3765C310.606 32.3765 313.259 31.3906 315.159 29.4439C318.619 25.8931 318.298 20.4542 318.281 20.2536V1.38013H318.289ZM314.586 28.9343C312.843 30.7222 310.38 31.6245 307.267 31.6245C304.145 31.6245 301.682 30.7222 299.939 28.9343C299.887 28.8758 299.843 28.8173 299.791 28.7588L302.228 26.6451L302.185 26.62C299.965 24.1219 300.138 20.2536 300.138 20.2536V5.16485L303.286 2.14042H303.312V20.2369C303.304 20.3455 303.182 22.9355 304.57 24.4895L302.228 26.6451C303.286 27.8314 304.891 28.7171 307.31 28.7171V28.7338C314.812 28.7338 314.439 20.2954 314.439 20.2954V5.20663L317.509 2.22396V20.2787C317.509 20.3288 317.812 25.6258 314.586 28.9343ZM310.883 1.7561H317.951H310.883Z" fill="black"/>
<path d="M339.85 16.3353L321.941 0.912354V32.3849H329.703V17.5133L347.707 32.8444V1.29667H339.85V16.3353ZM322.731 31.6246V31.4408L325.844 28.7339V9.20032L322.739 2.60838L340.639 18.023V18.0063L343.622 24.4896L343.752 5.1566L346.926 2.04861V31.1567L346.892 31.1233L343.622 24.4896L325.844 9.19196L328.923 16.0763V31.6163H322.731V31.6246Z" fill="black"/>
<path d="M422.245 19.6605C423.381 18.9838 427.249 16.3019 427.249 11.2138C427.249 1.49715 415.359 1.37183 414.778 1.37183H403.582V32.4099L411.196 32.3765V20.9638L414.509 21.0056L419.027 32.3765L427.431 32.4099L422.245 19.6605ZM410.416 20.2036V31.6246L404.371 31.6496V31.6413L407.372 28.6837V16.9452V5.1649H414.787C414.787 5.1649 419.227 4.62184 421.56 6.86928L423.693 4.96439C425.523 6.49332 426.468 8.58202 426.468 11.2138C426.468 16.6778 421.629 19.1341 421.577 19.1592L421.256 19.3179L426.277 31.658L419.686 31.6329L422.011 29.3938L417.18 16.9535L415.021 20.2704L410.416 20.2036Z" fill="black"/>
<path d="M423.277 11.2222C423.277 8.66566 421.56 6.86938 421.56 6.86938L419.279 8.94138C418.767 8.42338 418.152 8.14767 417.718 8.04741L410.407 8.03906V14.1046L407.363 16.9536H417.18C417.189 16.9453 423.277 16.8032 423.277 11.2222ZM411.196 8.79099H417.579C417.857 8.86618 419.4 9.36747 419.4 11.2222C419.4 12.7512 418.004 13.2608 417.718 13.3527H411.196V8.79099Z" fill="black"/>
<path d="M219.712 4.43791C217.656 2.39098 214.803 1.35498 211.248 1.35498H209.409C198.248 1.35498 197.355 11.2972 197.294 13.2856C197.285 13.4778 197.285 13.5864 197.285 13.5864V20.1115C197.285 20.3371 197.225 25.6842 200.876 29.2684C202.966 31.3153 205.827 32.3513 209.409 32.3513H211.248C214.803 32.3513 217.656 31.3153 219.712 29.2684C223.345 25.6591 223.215 20.2452 223.207 20.028V13.6867C223.215 13.4611 223.345 8.04718 219.712 4.43791ZM200.971 19.5183V18.073L200.98 19.794C200.971 19.6186 200.971 19.5183 200.971 19.5183ZM200.971 14.1462C200.971 14.1295 200.971 14.1044 200.971 14.0877L200.962 15.8172V14.3718C200.971 14.3718 200.962 14.2966 200.971 14.1462ZM219.139 28.7504C217.231 30.6386 214.578 31.5994 211.239 31.5994H209.4C206.044 31.5994 203.364 30.6386 201.431 28.742C201.335 28.6501 201.257 28.5582 201.17 28.4663L203.451 26.4528C201.274 24.1051 200.997 20.7548 200.962 19.794V14.0877C201.023 12.5254 201.699 5.0478 209.53 5.0478H210.875C213.789 5.0478 215.696 5.9167 216.954 7.31196L219.278 5.10629C222.53 8.48999 222.417 13.6115 222.417 13.6783V20.0447C222.426 20.0948 222.548 25.3751 219.139 28.7504Z" fill="black"/>
<path d="M214.5 9.12495C213.528 8.17251 212.271 7.68793 210.753 7.68793H209.895C204.509 7.68793 204.032 13.6198 203.998 14.848V14.8898C203.998 15.0067 203.998 15.0736 203.998 15.0736V18.9251C203.998 18.9251 203.998 19.0003 203.998 19.1424V19.1507C204.024 19.8943 204.206 22.4926 205.654 24.3474L203.46 26.4278C204.743 27.8063 205.576 28.6668 209.539 28.6668H211.04C219.651 28.6668 219.356 19.535 219.339 19.2677V17.8307V15.7253V14.2799C219.339 14.2799 219.46 10.1025 216.963 7.32031L214.838 9.50092C214.725 9.36724 214.621 9.24192 214.5 9.12495ZM204.795 14.9232V14.8647C204.83 13.7869 205.238 8.44821 209.903 8.44821H210.762C212.054 8.44821 213.121 8.8576 213.936 9.65966C215.861 11.5562 215.801 15.0819 215.801 15.1237V18.8834C215.801 18.9168 215.87 22.4342 213.936 24.3391C213.121 25.1411 212.054 25.5505 210.762 25.5505H209.903C205.229 25.5505 204.83 20.2034 204.795 19.1424V14.9232Z" fill="black"/>
<path d="M234.438 1.38013H226.78V32.3598H250.282V24.8822L234.377 24.8488L234.438 1.38013ZM227.561 31.5995V31.5911L230.535 28.6419V5.16485L233.649 2.14042L233.579 25.6007H233.597L230.535 28.6419H246.614L249.493 25.6592V31.5995H227.561Z" fill="black"/>
<path d="M284.945 13.0602H276.993V1.38013H269.188V32.3514L277.045 32.4182V20.638H284.902V32.3598H292.759V1.38013H284.954V13.0602H284.945ZM285.691 31.5995L288.778 28.6669L288.926 16.9451L285.682 19.8944V19.8777H276.255V31.658L269.977 31.6078L273.116 28.6669V17.0036V5.16485L276.212 2.14042V13.8204H276.238L273.125 16.9953L288.934 16.9368V5.1565L291.978 2.14042V31.5911H285.691V31.5995Z" fill="black"/>
<path d="M351.123 8.74909L358.26 8.71567V32.3347H365.953V8.74909H373.02V1.33838H351.114V8.74909H351.123ZM365.163 7.98881V31.5828H359.041L362.05 28.6502V5.12311L359.041 7.97209V7.96374L351.921 7.99716L355.017 5.13146H362.059H369.127L372.24 2.10702V8.00551H365.163V7.98881Z" fill="black"/>
<path d="M376.681 32.3514L400.104 32.4099V24.8739H384.338V20.6297H400.104V13.1521H384.338V8.78254H400.104V1.37183H376.681V32.3514ZM383.549 8.0306V13.9124H383.558L380.479 16.9285L396.375 16.9452L399.324 13.9374V19.8777H383.558V25.6342H383.566L380.462 28.692H396.375L399.324 25.6592V31.658L377.47 31.5995L380.462 28.692L380.444 5.09807L396.367 5.1649L399.315 2.15717V8.0306H383.549Z" fill="black"/>
</svg>
