<svg width="189" height="48" fill="none" xmlns="http://www.w3.org/2000/svg"><path d="M105.955 46.828h-3.059V24.491h-1.435v-2.203H99.63l-.292-2.293-.301 2.442-2.02-.042v1.832h-1.572c.017 1.254.086 6.063.077 9.049h-.619c.009-3.432-.086-9.28-.086-9.346l-.008-.305h1.581v-1.848l2.088.05.843-6.822.85 6.69h1.9v2.202h1.435v22.338h1.813V13.157l3.206-5.807.224.04c.403.075.945.083 1.074-.024.043-.058.034-.305.026-.437-.009-.289-.018-.577.18-.775a.53.53 0 01.378-.149c.473 0 4.925.041 5.114.05h.326l-.017.313c-.008.264-.034.998 0 1.279 0 .016.009.04.009.057h.06c.43.025 2.561.157 2.656.157l.292.017v20.828h-.619V8.439c-.619-.042-2.028-.124-2.355-.14-.06 0-.112-.009-.155-.009-.223-.008-.472-.041-.489-.42 0-.042 0-.091-.009-.157-.034-.256-.026-.751-.017-1.073-1.006-.008-4.091-.041-4.718-.041-.009.083-.009.215-.009.305.009.322.017.693-.249.908-.335.272-.989.239-1.367.19l-2.913 5.295v33.531h.008zm-24.777-6.145h-.43v-.602h.396c.069-.017.645-.23.713-1.914.095-2.128 1.47-28.813 1.479-29.077l.017-.289h3.575L87.452 0h.619l.593 8.703 3.55.107.017.272c.008.165 1.134 16.399 1.744 23.344l-.618.05c-.568-6.46-1.573-20.928-1.728-23.089l-3.55-.107-.292-4.355-.266 4.462h-3.567c-.146 2.896-1.375 26.784-1.47 28.788-.102 2.376-1.177 2.5-1.306 2.508zm-29.993 2.335h-3.258v-.602h2.63v-12.68l.017-.041c.06-.182.387-1.08 1.015-1.08.077-.026.249-.322.318-.636l.051-.24h2.604l-.086.364c-.026.132-.051.437.052.569.017.025.06.074.215.074H56.1v12.415l.713-.025v-4.009L58.05 31.7l4.504-4.124 3.962 4.248v3.39h2.148V16.456h1.831l.258-.099.773-4.503.714 4.512.232.099 1.71.057v17.595l2.174.074-.025.594-2.776-.09V17.108l-1.23-.041-.661-.28-.172-1.09-.19 1.09-.695.272h-1.324v18.757H65.89v-3.761l-3.368-3.613-3.902 3.58-1.186 5.189v4.52l-1.96.066V29.349h-.739c-.378 0-.593-.165-.705-.297-.18-.214-.215-.486-.215-.709H52.44c-.111.338-.37.874-.859.874-.086.009-.292.297-.404.619v13.182h.009zM21.396 47.72H.667v-.603h20.704c.154-.008 2.544-.156 3.652-.783.284-.157.542-.33.782-.495.817-.545 1.59-1.056 3.103-1.056h.129c.18 0 .223 0 .43.008l-.018.594c-.198-.008-.24-.008-.404-.008h-.129c-1.315 0-1.976.437-2.741.948a13.82 13.82 0 01-.825.52c-1.272.726-3.833.866-3.954.874zm119.796-1.939h-.628V21.274l-2.303-.14.009-.289c0-.017.069-1.716 0-2.862-.026-.388-.121-.578-.198-.636-.043-.024-.086-.016-.094-.008l-.069.033-.043-.008c-.198 0-4.83.074-6.54.008-1.393-.058-1.616.149-2.278.75-.094.083-.189.174-.301.273-.85.75-1.126 1.584-1.134 1.592l-.069.215h-2.501v10.575h-.627V19.59h2.673a4.928 4.928 0 011.22-1.641 9.11 9.11 0 00.284-.264c.765-.701 1.134-.982 2.733-.916 1.598.066 5.964 0 6.463-.008a.745.745 0 01.584.074c.292.173.464.545.498 1.105.052.891.026 2.08.009 2.623l2.286.14V45.78h.026zm33.002.289h-.627v-9.9h-1.762a.577.577 0 01-.49-.24c-.198-.288-.095-.783.034-1.17h-2.716l-3.437 3.3-3.816.073v-7.919l-2.716-3.637-.885 1.757v8.67c0 .486-.181.874-.524 1.146-.851.676-2.433.396-2.493.387l-.258-.049v-9.915h-5.448l-3.025 2.45v4.264c0 .842-1.333 2.104-1.599 2.351l-.095.083h-1.246v8.026h-.627v-8.62h1.616c.575-.544 1.323-1.427 1.323-1.831v-4.545l3.421-2.772h6.299v10.014c.482.05 1.307.05 1.728-.297.197-.157.301-.388.301-.684v-8.81l1.409-2.788 3.446 4.619v7.498l2.931-.058 3.446-3.307h3.902l-.189.42c-.172.38-.292.833-.258.99h2.364V46.07h-.009z" fill="#CACACA"/><path d="M146.383 30.092l-.137-14.658 1.564-.19.601-3.596.611 3.505 1.624.132.344 13.025-.619.017-.335-12.49-1.547-.123-.06-.363-.078.43-1.478.18.137 14.123-.627.008zM188.658 48c-7.932 0-11.868-.248-13.175-.833-.206-.09-.395-.182-.575-.264-.954-.446-1.53-.71-3.051-.858-.817-.083-2.149-.083-3.558-.083-1.719 0-3.498.009-4.444-.148-.61-.099-1.074-.198-1.452-.272-.662-.132-1.1-.223-1.745-.223-.765 0-2.277.149-4.202.347-.654.066-1.35.132-2.08.206-2.879.28-5.329.28-8.156.28-.92 0-1.977.008-3.042.008-2.14.009-4.349.017-5.475-.008-1.255-.033-1.47-.206-1.822-.742-.103-.157-.232-.355-.456-.594-.567-.61-.635-.61-.971-.635-.129-.008-.3-.017-.515-.05-.808-.132-1.762-.511-2.604-1.056a6.26 6.26 0 00-1.401-.651l-.215-.066v-3.852l-1.745.05.026-.33c0-.01.043-.677 0-1.428-.026-.454-.834-1.114-1.332-1.419l-.138-.082-.24-3.399-3.507-2.243.043-1.898-1.057.124-.008-.082-.009.05h-1.289l-.009 1.12-.043.075c-.172.272-.808.347-1.89.24-.009 0-.026 0-.069.032-.774.718-.714 5.898-.49 8.992l.026.33-4.186-.108v-7.193h-2.913v6.97h-.98l-.687 2.45v6.039h-5.045v-.602h4.417v-5.527l.834-2.97h.833v-6.97h4.16v7.21l2.888.074c-.121-1.914-.43-8.092.696-9.14a.697.697 0 01.559-.198c.739.074 1.091.041 1.246.008l.017-1.443h1.358l.567-4.628.55 4.587 1.152-.14-.052 2.26 3.472 2.227.241 3.398c.395.264 1.444 1.023 1.495 1.798.026.47.026.9.017 1.18l1.702-.05v4.042a7.1 7.1 0 011.341.652c.773.495 1.633.85 2.363.965.189.033.327.041.456.041.533.033.73.116 1.401.834.266.28.412.51.524.676.232.355.283.429 1.306.462 1.117.033 3.318.016 5.458.008 1.065-.008 2.122-.008 3.042-.008 2.81 0 5.242 0 8.096-.272.73-.066 1.426-.14 2.071-.207 1.934-.198 3.463-.346 4.263-.346.704 0 1.194.099 1.873.24.387.082.834.172 1.427.271.902.14 2.655.14 4.349.14 1.426 0 2.767 0 3.618.083 1.633.165 2.277.462 3.266.916.171.082.361.165.567.255 1.555.693 8.121.776 12.917.776V48h-.009zM76.804 46.862h-.628V27.147l2.26-2.07 2.416 2.111v19.055h2.638v-7.242l.421.148c.164.058.378.09.464.066.078-.363.035-2.062-.043-3.572l-.008-.19 7.778-4.066 7.021 3.794v3.638h1.16v7.432h2.673v.602h-3.291v-7.432h-1.17v-3.885l-6.402-3.456-7.133 3.728c.172 3.407 0 3.663-.06 3.753-.18.264-.516.297-.791.264v7.028h-3.885V27.47l-1.779-1.56-1.65 1.51v19.443h.009zm-11.009-15.69h-.628V13.025h-2.08v-1.576h-.661c-.069 0-.224.066-.37.14v1.65H60.57v16.787h-.627v-17.38h1.487v-1.37l.137-.09c.12-.075.533-.33.851-.33h1.29v1.575h2.08v18.741h.008zM29.639 45.393h-.628V33.886h1.367V31.89h3.48l.078.041c.404.24 2.432 1.501 2.51 2.434.06.7.017 3.357.008 4.264h4.03v-9.214h7.65V43.01h-.62v-13h-6.402v9.222h-5.285l.008-.305c0-.041.069-3.712 0-4.512-.034-.445-1.272-1.394-2.148-1.93h-2.682v1.996h-1.358v10.913h-.008z" fill="#CACACA"/><path d="M29.475 45.393v-.742c4.289 0 11.38-.1 12.11-.338.318-.108.876-.355 1.52-.644 1.53-.693 3.43-1.344 4.393-1.32l.43.545c-.01 0-.422.123-.43.123-.8 0-2.776.751-4.066 1.329-.67.297-1.246.56-1.598.676-1.092.355-11.207.371-12.359.371z" fill="#CACACA"/></svg>